<?xml version="1.0" encoding="utf-8"?>
<!-- Svg Vector Icons : http://www.onlinewebfonts.com/icon -->
<!DOCTYPE svg PUBLIC "-//W3C//DTD SVG 1.1//EN" "http://www.w3.org/Graphics/SVG/1.1/DTD/svg11.dtd">
<svg version="1.1" xmlns="http://www.w3.org/2000/svg" xmlns:xlink="http://www.w3.org/1999/xlink" x="0px" y="0px" viewBox="0 0 1000 1000" enable-background="new 0 0 1000 1000" xml:space="preserve">
<metadata> Svg Vector Icons : http://www.onlinewebfonts.com/icon </metadata>
<g><path d="M191.2,528h88.6v30.5h-88.6V528L191.2,528z M510.4,500.2c8.4,0,16.3,1.9,23.3,5.4c27.3-33.1,57.8-62.8,92.2-88.4c8.4,8,16.8,16,25.3,24c-25.9,39.3-55.7,72.8-88.5,101.8c0.7,3.5,1.1,7,1.1,10.7c0,29.5-23.9,53.4-53.4,53.4c-29.5,0-53.4-23.9-53.4-53.4c0-11.3,3.5-21.8,9.5-30.4c-39.5-53.2-73.2-110.5-100.7-172c8.9-4.9,17.8-9.8,26.8-14.7c39.5,53.1,74,108.3,102.4,166C499.8,501,505,500.2,510.4,500.2L510.4,500.2L510.4,500.2z M434,209.2l-0.1,91.2l251.8-144.7L434.4,10l-0.2,93.5c-94.4,14-181.6,58-249.3,125.7C101.1,313.1,54.3,425.8,54.3,544.3c0,118.6,46.7,231.3,130.6,315.1C268.7,943.3,381.4,990,500,990c118.6,0,231.3-46.7,315.2-130.6c50-49.9,87.5-111.1,109.1-178.3l5.2-16.1l-99.8-29.6l-5,15.2c-16.7,50.9-45.2,97.3-83.1,135.1c-64.2,64.3-150.6,100-241.5,100c-90.9,0-177.2-35.8-241.4-100c-64.3-64.3-100-150.6-100-241.5c0-90.9,35.8-177.2,100-241.4C306.6,254.8,367.6,222.3,434,209.2L434,209.2L434,209.2z M837.7,493.1c-3.3-21.9-8.7-43.4-16.2-64.1l-5.5-15.3l97.6-36.4l5.7,15.6c10.9,30.1,18.4,61.3,22.6,93.1l3.4,32.3L841.2,522L837.7,493.1L837.7,493.1z M835.8,606.9c3.8-20.6,5.7-41.5,5.7-62.5c0-2.1,0-4.1-0.1-6.2l-0.3-16.2l104.1-3.8l0.3,16.7c0.1,3.1,0.1,6.3,0.1,9.4c0,29.9-3,59.9-8.9,89.2l-7.3,31.5l-99.8-29.6L835.8,606.9L835.8,606.9z M803.4,387.5c-9.2-17.7-19.9-34.6-32-50.4l-9.9-12.9l82-64.2l10.1,13.2c17.9,23.2,33.4,48.2,46.3,74.5l13.6,29.6L816,413.7L803.4,387.5L803.4,387.5z M761.5,324.1l-20-21.2c-15.2-15.2-31.8-29-49.6-41.1l-14.7-10l65.1-81.9l12.7,8.9c21.4,15,41.6,31.9,60.1,50.4c2.2,2.2,4.3,4.4,6.4,6.6l21.9,24.1L761.5,324.1L761.5,324.1z M500.2,847.4v-88.5h30.5v88.5H500.2L500.2,847.4z M723.9,759l-62.6-62.6l21.6-21.6l62.6,62.7L723.9,759L723.9,759z M279.5,751.7l62.7-62.6l21.6,21.6l-62.6,62.6L279.5,751.7L279.5,751.7z M286.8,307.3l62.6,62.6l-21.5,21.6l-62.7-62.6L286.8,307.3L286.8,307.3z M731.2,314.6l-21.6-21.6L647,355.7l21.6,21.6L731.2,314.6L731.2,314.6z M819.6,538.4H731v-30.5h88.6V538.4L819.6,538.4z"/></g>
</svg>