<?xml version="1.0" standalone="no"?>
<!DOCTYPE svg PUBLIC "-//W3C//DTD SVG 20010904//EN"
 "http://www.w3.org/TR/2001/REC-SVG-20010904/DTD/svg10.dtd">
<svg version="1.0" xmlns="http://www.w3.org/2000/svg"
 width="270.000000pt" height="270.000000pt" viewBox="0 0 270.000000 270.000000"
 preserveAspectRatio="xMidYMid meet">
<metadata>
Created by potrace 1.11, written by Peter Selinger 2001-2013
</metadata>
<g transform="translate(0.000000,270.000000) scale(0.100000,-0.100000)"
fill="#000000" stroke="none">
<path d="M180 2691 c-69 -21 -121 -65 -156 -131 -18 -34 -19 -83 -19 -1210 l0
-1175 22 -40 c25 -47 64 -85 113 -111 34 -18 83 -19 1210 -19 1127 0 1176 1
1210 19 49 26 88 64 113 111 l22 40 0 1175 0 1175 -22 40 c-25 47 -64 85 -113
111 -34 18 -84 19 -1195 21 -638 1 -1171 -2 -1185 -6z m1231 -450 c23 -18 24
-26 27 -153 2 -73 8 -137 13 -142 5 -6 20 1 39 19 62 60 160 24 160 -58 0 -27
-19 -50 -133 -164 -119 -119 -136 -133 -167 -133 -31 0 -48 14 -167 133 -145
145 -156 166 -113 220 37 47 92 45 148 -6 14 -13 26 -17 31 -11 5 5 11 69 13
142 3 127 4 135 27 153 14 11 39 19 61 19 22 0 47 -8 61 -19z m10 -810 c23
-23 29 -38 29 -71 0 -102 -139 -139 -186 -49 -53 104 75 201 157 120z m-420
-150 c19 -15 24 -29 24 -65 0 -45 -2 -47 -119 -165 -103 -103 -118 -122 -107
-135 8 -10 29 -16 52 -16 52 0 79 -27 79 -79 0 -23 -8 -48 -19 -62 -19 -23
-25 -24 -187 -27 -183 -4 -205 -1 -234 28 -19 19 -20 34 -20 210 0 189 0 191
25 215 55 55 135 15 135 -68 0 -29 6 -49 16 -58 14 -12 31 2 138 114 112 117
124 127 157 127 21 0 47 -8 60 -19z m915 -97 c125 -131 145 -140 155 -65 6 48
44 91 79 91 32 0 67 -21 79 -47 15 -32 15 -354 0 -386 -19 -41 -49 -47 -229
-47 -161 0 -170 1 -195 23 -15 13 -28 37 -32 59 -8 50 29 88 85 88 23 0 45 6
52 15 11 14 -4 34 -108 139 -110 110 -122 126 -122 158 0 54 32 88 83 88 41 0
46 -4 153 -116z m-509 -68 c28 -24 28 -26 31 -158 2 -73 8 -137 13 -142 5 -6
20 1 39 19 62 60 160 24 160 -58 0 -27 -18 -49 -128 -159 -125 -125 -129 -128
-172 -128 -43 0 -47 3 -172 128 -140 139 -150 161 -108 215 37 47 92 45 148
-6 14 -13 26 -17 31 -11 5 5 11 69 13 142 3 132 3 134 31 158 16 13 41 24 57
24 16 0 41 -11 57 -24z"/>
</g>
</svg>
